<svg height="64px" width="64px" version="1.1" id="Layer_1" xmlns="http://www.w3.org/2000/svg" xmlns:xlink="http://www.w3.org/1999/xlink" viewBox="0 0 512 512" xml:space="preserve" fill="#000000"><g id="SVGRepo_bgCarrier" stroke-width="0"></g><g id="SVGRepo_tracerCarrier" stroke-linecap="round" stroke-linejoin="round"></g><g id="SVGRepo_iconCarrier"> <path style="fill:#FFB855;" d="M269.588,75.531c8.262,8.166,19.41,12.745,31.026,12.745h17.18h44.614 c-11.616,0-22.764-4.579-31.026-12.745l-27.802-27.476c-8.263-8.166-19.41-12.745-31.026-12.745H210.76 c11.616,0,22.764,4.579,31.026,12.745L269.588,75.531z"></path> <path style="fill:#FFC85A;" d="M179.992,48.055l27.802,27.476c8.262,8.166,19.41,12.745,31.026,12.745H256h44.614 c-11.616,0-22.764-4.579-31.026-12.745l-27.802-27.476c-8.263-8.166-19.41-12.745-31.026-12.745h-60.691h-1.102 C160.583,35.31,171.73,39.89,179.992,48.055z"></path> <path style="fill:#FFDC69;" d="M485.517,88.276H379.586h-17.18h-44.614h-17.18H256h-17.18c-11.616,0-22.764-4.579-31.026-12.745 l-27.802-27.476c-8.263-8.166-19.41-12.745-31.026-12.745H88.276H26.483C11.857,35.31,0,47.167,0,61.793v52.966v8.828v326.621 c0,14.626,11.857,26.483,26.483,26.483h459.034c14.626,0,26.483-11.857,26.483-26.483V114.759 C512,100.132,500.143,88.276,485.517,88.276z M300.138,150.069c0,9.75-7.904,17.655-17.655,17.655h-8.828 c-9.751,0-17.655-7.905-17.655-17.655v-8.828c0-9.75,7.904-17.655,17.655-17.655h8.828c9.751,0,17.655,7.905,17.655,17.655V150.069z M476.69,150.069c0,9.75-7.904,17.655-17.655,17.655H335.448c-9.751,0-17.655-7.905-17.655-17.655v-8.828 c0-9.75,7.904-17.655,17.655-17.655h123.586c9.751,0,17.655,7.905,17.655,17.655V150.069z"></path> <path style="fill:#FFF0B9;" d="M459.034,123.586H335.448c-9.751,0-17.655,7.905-17.655,17.655v8.828 c0,9.75,7.904,17.655,17.655,17.655h123.586c9.751,0,17.655-7.905,17.655-17.655v-8.828 C476.69,131.491,468.786,123.586,459.034,123.586z"></path> <path style="fill:#FFC85A;" d="M282.483,123.586h-8.828c-9.751,0-17.655,7.905-17.655,17.655v8.828 c0,9.75,7.904,17.655,17.655,17.655h8.828c9.751,0,17.655-7.905,17.655-17.655v-8.828 C300.138,131.491,292.234,123.586,282.483,123.586z"></path> </g></svg>
