<?xml version="1.0" standalone="no"?><!-- Generator: Gravit.io --><svg xmlns="http://www.w3.org/2000/svg" xmlns:xlink="http://www.w3.org/1999/xlink" style="isolation:isolate" viewBox="0 0 343 90" width="343" height="90"><defs><clipPath id="_clipPath_XWkdPFoXs51cquNk5eaFOTpEBhvmBVv0"><rect width="343" height="90"/></clipPath></defs><g clip-path="url(#_clipPath_XWkdPFoXs51cquNk5eaFOTpEBhvmBVv0)"><g transform="matrix(1,0,0,1,67,50.768)"><text transform="matrix(1,0,0,1,2.719,26.625)" style="font-family:'Permanent Marker';font-weight:400;font-size:24px;font-style:normal;fill:#000000;stroke:none;">Open Source Modules</text></g><g><path d=" M 110.636 23.292 L 101.53 23.292 L 101.53 17.856 L 125.911 17.856 L 125.911 23.292 L 116.805 23.292 L 116.805 50.469 L 110.636 50.469 L 110.636 23.292 Z " fill="rgb(0,0,0)"/><path d=" M 131.534 46.049 C 134.008 46.037 136.466 45.658 138.828 44.924 L 139.766 49.422 C 136.958 50.451 133.993 50.979 131.003 50.984 C 123.506 50.984 120.913 47.501 120.913 41.785 L 120.913 35.537 C 120.913 30.492 123.162 26.166 130.8 26.166 C 138.438 26.166 140.172 30.617 140.172 35.756 L 140.172 40.848 L 126.895 40.848 L 126.895 42.066 C 126.895 44.924 127.911 46.049 131.534 46.049 L 131.534 46.049 Z  M 126.849 36.006 L 134.439 36.006 L 134.439 34.834 C 134.439 32.585 133.752 31.023 130.816 31.023 C 127.879 31.023 126.849 32.585 126.849 34.834 L 126.849 36.006 Z " fill="rgb(0,0,0)"/><path d=" M 156.119 31.617 C 153.95 32.616 151.862 33.781 149.871 35.1 L 149.871 50.469 L 143.826 50.469 L 143.826 26.619 L 148.871 26.619 L 149.262 29.258 C 151.199 27.948 153.299 26.898 155.51 26.134 L 156.119 31.617 Z " fill="rgb(0,0,0)"/><path d=" M 170.707 31.617 C 168.538 32.616 166.45 33.781 164.459 35.1 L 164.459 50.469 L 158.415 50.469 L 158.415 26.619 L 163.46 26.619 L 163.85 29.258 C 165.787 27.948 167.887 26.898 170.098 26.134 L 170.707 31.617 Z " fill="rgb(0,0,0)"/><path d=" M 190.668 50.453 L 185.779 50.453 L 185.342 48.891 C 183.231 50.264 180.769 50.996 178.251 51 C 173.893 51 172.003 48.017 172.003 43.909 C 172.003 39.067 174.112 37.208 178.954 37.208 L 184.686 37.208 L 184.686 34.709 C 184.686 32.07 183.952 31.133 180.141 31.133 C 177.92 31.156 175.706 31.402 173.534 31.867 L 172.8 27.321 C 175.461 26.586 178.208 26.208 180.969 26.197 C 188.466 26.197 190.668 28.837 190.668 34.819 L 190.668 50.453 Z  M 184.702 41.441 L 180.297 41.441 C 178.345 41.441 177.798 41.972 177.798 43.784 C 177.798 45.596 178.329 46.189 180.203 46.189 C 181.781 46.168 183.329 45.749 184.702 44.971 L 184.702 41.441 Z " fill="rgb(0,0,0)"/><path d=" M 209.036 21.183 C 207.912 20.941 206.766 20.81 205.616 20.793 C 203.273 20.793 202.929 21.824 202.929 23.635 L 202.929 26.619 L 208.989 26.619 L 208.646 31.304 L 202.914 31.304 L 202.914 50.391 L 196.947 50.391 L 196.947 31.367 L 193.12 31.367 L 193.12 26.681 L 196.931 26.681 L 196.931 23.292 C 196.931 18.34 199.227 15.904 204.522 15.904 C 206.259 15.896 207.988 16.127 209.661 16.591 L 209.036 21.183 Z " fill="rgb(0,0,0)"/><path d=" M 220.688 50.953 C 212.519 50.953 210.317 46.455 210.317 41.582 L 210.317 35.553 C 210.317 30.664 212.519 26.181 220.688 26.181 C 228.857 26.181 231.075 30.68 231.075 35.553 L 231.075 41.582 C 231.059 46.439 228.857 50.953 220.688 50.953 Z  M 220.688 31.226 C 217.564 31.226 216.283 32.648 216.283 35.334 L 216.283 41.753 C 216.283 44.44 217.502 45.861 220.688 45.861 C 223.874 45.861 225.093 44.44 225.093 41.753 L 225.093 35.334 C 225.093 32.632 223.859 31.211 220.688 31.211 L 220.688 31.226 Z " fill="rgb(0,0,0)"/><path d=" M 246.428 31.617 C 244.26 32.616 242.171 33.781 240.181 35.1 L 240.181 50.469 L 234.152 50.469 L 234.152 26.619 L 239.197 26.619 L 239.587 29.258 C 241.524 27.948 243.624 26.898 245.835 26.134 L 246.428 31.617 Z " fill="rgb(0,0,0)"/><path d=" M 262.828 50.453 L 262.828 33.819 C 262.828 32.554 262.297 31.913 260.923 31.913 C 258.726 32.159 256.601 32.844 254.675 33.928 L 254.675 50.469 L 248.74 50.469 L 248.74 26.619 L 253.285 26.619 L 253.879 28.633 C 256.851 27.145 260.102 26.294 263.422 26.134 C 265.306 25.96 267.1 26.975 267.92 28.68 C 270.898 27.157 274.168 26.289 277.51 26.134 C 281.478 26.134 282.899 28.93 282.899 33.179 L 282.899 50.453 L 276.932 50.453 L 276.932 33.819 C 276.932 32.554 276.401 31.913 275.027 31.913 C 272.826 32.14 270.698 32.827 268.779 33.928 L 268.779 50.469 L 262.828 50.453 Z " fill="rgb(0,0,0)"/></g><g><path d=" M 58.712 61.673 L 58.712 61.508 L 36.832 48.872 L 36.832 74.133 L 58.712 86.768 L 58.712 61.673 Z " fill-rule="evenodd" fill="rgb(92,78,229)"/><g><path d=" M 58.712 33.466 L 58.712 58.737 L 36.832 46.101 L 36.832 20.831 L 58.712 33.466 Z " fill-rule="evenodd" fill="rgb(92,78,229)"/><path d=" M 61.11 58.737 L 83 46.101 L 83 20.831 L 61.11 33.466 L 61.11 58.737 Z " fill-rule="evenodd" fill="rgb(64,64,178)"/><path d=" M 12.554 31.998 L 34.434 44.633 L 34.434 19.362 L 12.554 6.727 L 12.554 31.998 Z " fill-rule="evenodd" fill="rgb(92,78,229)"/></g></g></g></svg>