<?xml version="1.0" standalone="no"?><!-- Generator: Gravit.io --><svg xmlns="http://www.w3.org/2000/svg" xmlns:xlink="http://www.w3.org/1999/xlink" style="isolation:isolate" viewBox="0 0 343 90" width="343" height="90"><defs><clipPath id="_clipPath_IftLbj7z3lrLTRENaJXvDLsUojfnunu6"><rect width="343" height="90"/></clipPath></defs><g clip-path="url(#_clipPath_IftLbj7z3lrLTRENaJXvDLsUojfnunu6)"><g transform="matrix(1,0,0,1,59,54)"><text transform="matrix(1,0,0,1,2.719,26.625)" style="font-family:'Permanent Marker';font-weight:400;font-size:24px;font-style:normal;fill:#000000;stroke:none;">Open Source Modules</text></g><g><path d=" M 104.609 34.142 L 96 34.142 L 96 29.003 L 119.051 29.003 L 119.051 34.142 L 110.442 34.142 L 110.442 59.836 L 104.609 59.836 L 104.609 34.142 Z " fill="rgb(0,0,0)"/><path d=" M 124.367 55.657 C 126.705 55.646 129.029 55.287 131.263 54.594 L 132.149 58.846 C 129.495 59.819 126.691 60.318 123.865 60.323 C 116.777 60.323 114.325 57.03 114.325 51.626 L 114.325 45.719 C 114.325 40.949 116.452 36.859 123.673 36.859 C 130.894 36.859 132.533 41.067 132.533 45.926 L 132.533 50.74 L 119.981 50.74 L 119.981 51.891 C 119.981 54.594 120.941 55.657 124.367 55.657 L 124.367 55.657 Z  M 119.937 46.162 L 127.113 46.162 L 127.113 45.054 C 127.113 42.928 126.464 41.451 123.687 41.451 C 120.911 41.451 119.937 42.928 119.937 45.054 L 119.937 46.162 Z " fill="rgb(0,0,0)"/><path d=" M 147.609 42.012 C 145.559 42.958 143.585 44.059 141.703 45.305 L 141.703 59.836 L 135.988 59.836 L 135.988 37.287 L 140.758 37.287 L 141.127 39.783 C 142.958 38.544 144.944 37.551 147.033 36.829 L 147.609 42.012 Z " fill="rgb(0,0,0)"/><path d=" M 161.401 42.012 C 159.351 42.958 157.377 44.059 155.495 45.305 L 155.495 59.836 L 149.78 59.836 L 149.78 37.287 L 154.55 37.287 L 154.919 39.783 C 156.75 38.544 158.736 37.551 160.825 36.829 L 161.401 42.012 Z " fill="rgb(0,0,0)"/><path d=" M 180.273 59.821 L 175.651 59.821 L 175.238 58.344 C 173.242 59.642 170.914 60.334 168.534 60.338 C 164.414 60.338 162.627 57.517 162.627 53.634 C 162.627 49.056 164.62 47.299 169.198 47.299 L 174.618 47.299 L 174.618 44.936 C 174.618 42.441 173.923 41.555 170.32 41.555 C 168.22 41.577 166.128 41.81 164.074 42.249 L 163.38 37.952 C 165.896 37.256 168.493 36.899 171.103 36.888 C 178.191 36.888 180.273 39.384 180.273 45.04 L 180.273 59.821 Z  M 174.632 51.301 L 170.468 51.301 C 168.622 51.301 168.105 51.803 168.105 53.516 C 168.105 55.229 168.607 55.79 170.379 55.79 C 171.871 55.77 173.334 55.374 174.632 54.638 L 174.632 51.301 Z " fill="rgb(0,0,0)"/><path d=" M 197.639 32.148 C 196.575 31.919 195.492 31.796 194.405 31.779 C 192.19 31.779 191.865 32.754 191.865 34.467 L 191.865 37.287 L 197.594 37.287 L 197.27 41.717 L 191.85 41.717 L 191.85 59.762 L 186.209 59.762 L 186.209 41.776 L 182.591 41.776 L 182.591 37.346 L 186.195 37.346 L 186.195 34.142 C 186.195 29.461 188.365 27.157 193.371 27.157 C 195.013 27.15 196.647 27.368 198.229 27.807 L 197.639 32.148 Z " fill="rgb(0,0,0)"/><path d=" M 208.655 60.294 C 200.932 60.294 198.85 56.041 198.85 51.434 L 198.85 45.734 C 198.85 41.112 200.932 36.874 208.655 36.874 C 216.378 36.874 218.474 41.126 218.474 45.734 L 218.474 51.434 C 218.46 56.026 216.378 60.294 208.655 60.294 Z  M 208.655 41.643 C 205.701 41.643 204.49 42.987 204.49 45.527 L 204.49 51.596 C 204.49 54.136 205.642 55.48 208.655 55.48 C 211.667 55.48 212.819 54.136 212.819 51.596 L 212.819 45.527 C 212.819 42.972 211.652 41.629 208.655 41.629 L 208.655 41.643 Z " fill="rgb(0,0,0)"/><path d=" M 232.99 42.012 C 230.94 42.958 228.965 44.059 227.083 45.305 L 227.083 59.836 L 221.383 59.836 L 221.383 37.287 L 226.153 37.287 L 226.522 39.783 C 228.353 38.544 230.339 37.551 232.429 36.829 L 232.99 42.012 Z " fill="rgb(0,0,0)"/><path d=" M 248.495 59.821 L 248.495 44.095 C 248.495 42.898 247.993 42.293 246.693 42.293 C 244.617 42.525 242.608 43.173 240.787 44.198 L 240.787 59.836 L 235.175 59.836 L 235.175 37.287 L 239.473 37.287 L 240.034 39.192 C 242.844 37.785 245.917 36.98 249.056 36.829 C 250.837 36.665 252.533 37.625 253.309 39.236 C 256.125 37.796 259.216 36.975 262.376 36.829 C 266.126 36.829 267.47 39.473 267.47 43.489 L 267.47 59.821 L 261.829 59.821 L 261.829 44.095 C 261.829 42.898 261.327 42.293 260.028 42.293 C 257.947 42.508 255.935 43.157 254.121 44.198 L 254.121 59.836 L 248.495 59.821 Z " fill="rgb(0,0,0)"/></g><g><path d=" M 58.712 58.673 L 58.712 58.508 L 36.832 45.872 L 36.832 71.133 L 58.712 83.768 L 58.712 58.673 Z " fill-rule="evenodd" fill="rgb(92,78,229)"/><g><path d=" M 58.712 30.466 L 58.712 55.737 L 36.832 43.101 L 36.832 17.831 L 58.712 30.466 Z " fill-rule="evenodd" fill="rgb(92,78,229)"/><path d=" M 61.11 55.737 L 83 43.101 L 83 17.831 L 61.11 30.466 L 61.11 55.737 Z " fill-rule="evenodd" fill="rgb(64,64,178)"/><path d=" M 12.554 28.998 L 34.434 41.633 L 34.434 16.362 L 12.554 3.727 L 12.554 28.998 Z " fill-rule="evenodd" fill="rgb(92,78,229)"/></g></g></g></svg>