<?xml version="1.0" encoding="UTF-8"?>
<svg xmlns="http://www.w3.org/2000/svg" xmlns:xlink="http://www.w3.org/1999/xlink" width="24pt" height="24pt" viewBox="0 0 24 24" version="1.1">
<g id="surface1">
<path style=" stroke:none;fill-rule:evenodd;fill:#999999;fill-opacity:1;" d="M 8.570312 18 L 8.570312 9.980469 L 5.996094 9.980469 L 5.996094 18 Z M 7.378906 8.765625 C 8.234375 8.765625 8.769531 8.152344 8.769531 7.382812 C 8.757812 6.601562 8.234375 6 7.390625 6 C 6.546875 6 6 6.601562 6 7.382812 C 6 8.152344 6.535156 8.765625 7.359375 8.765625 Z M 7.378906 8.765625 "/>
<path style=" stroke:none;fill-rule:evenodd;fill:#999999;fill-opacity:1;" d="M 15.027344 9.796875 C 13.664062 9.796875 13.078125 10.566406 12.703125 11.101562 L 12.703125 9.984375 L 10.125 9.984375 L 10.125 18 L 12.703125 18 L 12.703125 13.433594 C 12.703125 13.199219 12.722656 12.964844 12.792969 12.800781 C 12.980469 12.332031 13.402344 11.851562 14.113281 11.851562 C 15.046875 11.851562 15.421875 12.566406 15.421875 13.617188 L 15.421875 18 L 18 18 L 18 13.316406 C 18 10.914062 16.726562 9.796875 15.027344 9.796875 Z M 15.027344 9.796875 "/>
<path style=" stroke:none;fill-rule:nonzero;fill:#999999;fill-opacity:1;" d="M 19.554688 3 L 4.539062 3 C 3.71875 3 3 3.589844 3 4.402344 L 3 19.453125 C 3 20.269531 3.71875 20.996094 4.539062 20.996094 L 19.550781 20.996094 C 20.375 20.996094 20.996094 20.265625 20.996094 19.453125 L 20.996094 4.402344 C 21 3.589844 20.375 3 19.554688 3 Z M 19.40625 19.5 C 19.355469 19.5 4.730469 19.5 4.644531 19.5 C 4.5625 19.5 4.5 19.433594 4.5 19.355469 C 4.5 19.273438 4.5 4.644531 4.5 4.59375 C 4.5 4.542969 4.546875 4.5 4.59375 4.5 C 4.640625 4.5 19.359375 4.5 19.40625 4.5 C 19.453125 4.5 19.5 4.546875 19.5 4.59375 C 19.5 5.6875 19.5 19.355469 19.5 19.40625 C 19.5 19.449219 19.457031 19.5 19.40625 19.5 Z M 19.40625 19.5 "/>
</g>
</svg>
