<?xml version="1.0" encoding="UTF-8"?>
<svg xmlns="http://www.w3.org/2000/svg" xmlns:xlink="http://www.w3.org/1999/xlink" width="24pt" height="24pt" viewBox="0 0 24 24" version="1.1">
<g id="surface1">
<path style=" stroke:none;fill-rule:nonzero;fill:#999999;fill-opacity:1;" d="M 13.5 9 L 13.5 7.214844 C 13.5 6.40625 13.679688 6 14.929688 6 L 16.5 6 L 16.5 3 L 13.878906 3 C 10.667969 3 9.609375 4.472656 9.609375 7 L 9.609375 9 L 7.5 9 L 7.5 12 L 9.609375 12 L 9.609375 21 L 13.5 21 L 13.5 12 L 16.144531 12 L 16.5 9 Z M 15.476562 11.25 L 12.75 11.25 L 12.75 20.25 L 10.359375 20.25 L 10.359375 11.25 L 8.25 11.25 L 8.25 9.75 L 10.359375 9.75 L 10.359375 7 C 10.359375 5.851562 10.613281 5.066406 11.085938 4.570312 C 11.609375 4.007812 12.542969 3.75 13.878906 3.75 L 15.75 3.75 L 15.75 5.25 L 14.929688 5.25 C 14.367188 5.25 13.640625 5.300781 13.191406 5.796875 C 12.8125 6.21875 12.75 6.742188 12.75 7.210938 L 12.75 9.75 L 15.65625 9.75 Z M 15.476562 11.25 "/>
</g>
</svg>
