<?xml version="1.0" encoding="UTF-8"?>
<svg xmlns="http://www.w3.org/2000/svg" xmlns:xlink="http://www.w3.org/1999/xlink" width="24pt" height="24pt" viewBox="0 0 24 24" version="1.1">
<g id="surface1">
<path style=" stroke:none;fill-rule:nonzero;fill:#999999;fill-opacity:1;" d="M 16.597656 13.519531 C 16.597656 14.34375 15.929688 15.007812 15.109375 15.007812 C 14.285156 15.007812 13.617188 14.34375 13.617188 13.519531 C 13.617188 12.695312 14.285156 12.027344 15.109375 12.027344 C 15.929688 12.027344 16.597656 12.695312 16.597656 13.519531 Z M 16.597656 13.519531 "/>
<path style=" stroke:none;fill-rule:nonzero;fill:#999999;fill-opacity:1;" d="M 10.410156 13.519531 C 10.410156 14.34375 9.742188 15.007812 8.921875 15.007812 C 8.097656 15.007812 7.429688 14.34375 7.429688 13.519531 C 7.429688 12.695312 8.097656 12.027344 8.921875 12.027344 C 9.742188 12.027344 10.410156 12.695312 10.410156 13.519531 Z M 10.410156 13.519531 "/>
<path style=" stroke:none;fill-rule:nonzero;fill:#999999;fill-opacity:1;" d="M 22.523438 11.765625 C 22.523438 10.46875 21.484375 9.414062 20.203125 9.414062 C 19.59375 9.414062 19.046875 9.648438 18.628906 10.035156 C 17.070312 8.9375 14.953125 8.230469 12.59375 8.128906 L 13.6875 4.484375 L 16.949219 5.136719 C 16.960938 6.296875 17.890625 7.234375 19.035156 7.234375 C 20.1875 7.234375 21.121094 6.285156 21.121094 5.117188 C 21.121094 3.953125 20.1875 3 19.035156 3 C 18.164062 3 17.417969 3.542969 17.105469 4.3125 L 13.109375 3.515625 L 11.734375 8.117188 L 11.398438 8.128906 C 9.042969 8.230469 6.921875 8.945312 5.367188 10.035156 C 4.953125 9.648438 4.402344 9.414062 3.792969 9.414062 C 2.511719 9.414062 1.472656 10.46875 1.472656 11.765625 C 1.472656 12.683594 1.988281 13.476562 2.742188 13.867188 C 2.703125 14.09375 2.6875 14.324219 2.6875 14.558594 C 2.695312 18.113281 6.863281 21 12 21 C 17.136719 21 21.304688 18.113281 21.304688 14.554688 C 21.304688 14.320312 21.285156 14.089844 21.253906 13.859375 C 22.007812 13.472656 22.523438 12.679688 22.523438 11.765625 Z M 19.035156 3.839844 C 19.730469 3.839844 20.292969 4.410156 20.292969 5.113281 C 20.292969 5.816406 19.730469 6.390625 19.035156 6.390625 C 18.34375 6.390625 17.78125 5.816406 17.78125 5.113281 C 17.78125 4.410156 18.34375 3.839844 19.035156 3.839844 Z M 2.304688 11.765625 C 2.304688 10.929688 2.976562 10.257812 3.796875 10.257812 C 4.132812 10.257812 4.449219 10.375 4.695312 10.566406 C 3.886719 11.277344 3.285156 12.113281 2.960938 13.023438 C 2.570312 12.746094 2.304688 12.285156 2.304688 11.765625 Z M 18.113281 18.417969 C 16.492188 19.539062 14.320312 20.15625 12 20.15625 C 9.679688 20.15625 7.507812 19.539062 5.886719 18.417969 C 4.363281 17.363281 3.523438 15.988281 3.523438 14.554688 C 3.523438 14.40625 3.535156 14.25 3.554688 14.101562 C 3.585938 13.820312 3.65625 13.542969 3.753906 13.269531 C 4.015625 12.539062 4.503906 11.851562 5.195312 11.234375 C 5.398438 11.054688 5.625 10.875 5.867188 10.707031 C 5.875 10.703125 5.882812 10.695312 5.886719 10.691406 C 7.507812 9.570312 9.679688 8.953125 12 8.953125 C 14.320312 8.953125 16.492188 9.570312 18.113281 10.691406 C 18.117188 10.695312 18.125 10.703125 18.132812 10.707031 C 18.375 10.875 18.601562 11.054688 18.804688 11.234375 C 19.496094 11.851562 19.984375 12.539062 20.246094 13.269531 C 20.34375 13.542969 20.410156 13.820312 20.445312 14.101562 C 20.464844 14.25 20.476562 14.398438 20.476562 14.554688 C 20.476562 15.988281 19.636719 17.363281 18.113281 18.417969 Z M 21.039062 13.015625 C 20.714844 12.109375 20.113281 11.273438 19.304688 10.5625 C 19.550781 10.367188 19.867188 10.25 20.203125 10.25 C 21.023438 10.25 21.695312 10.929688 21.695312 11.761719 C 21.695312 12.285156 21.429688 12.746094 21.039062 13.015625 Z M 21.039062 13.015625 "/>
<path style=" stroke:none;fill-rule:nonzero;fill:#999999;fill-opacity:1;" d="M 15.023438 16.777344 C 15.015625 16.785156 13.890625 17.910156 12 17.921875 C 10.082031 17.910156 8.980469 16.785156 8.972656 16.777344 L 8.382812 17.359375 C 8.4375 17.414062 9.769531 18.742188 12 18.75 C 14.230469 18.742188 15.558594 17.414062 15.613281 17.359375 Z M 15.023438 16.777344 "/>
</g>
</svg>
