<?xml version="1.0" encoding="UTF-8"?>
<svg xmlns="http://www.w3.org/2000/svg" xmlns:xlink="http://www.w3.org/1999/xlink" width="24pt" height="24pt" viewBox="0 0 24 24" version="1.1">
<g id="surface1">
<path style=" stroke:none;fill-rule:nonzero;fill:#999999;fill-opacity:1;" d="M 23.0625 5.132812 C 22.246094 5.492188 21.375 5.738281 20.457031 5.851562 C 21.394531 5.289062 22.117188 4.398438 22.453125 3.335938 C 21.578125 3.859375 20.605469 4.238281 19.570312 4.4375 C 18.742188 3.554688 17.554688 3 16.257812 3 C 13.75 3 11.71875 5.035156 11.71875 7.542969 C 11.71875 7.898438 11.757812 8.246094 11.835938 8.578125 C 8.0625 8.390625 4.710938 6.582031 2.476562 3.828125 C 2.085938 4.5 1.859375 5.28125 1.859375 6.113281 C 1.859375 7.6875 2.664062 9.078125 3.882812 9.894531 C 3.140625 9.875 2.4375 9.671875 1.828125 9.328125 C 1.828125 9.347656 1.828125 9.367188 1.828125 9.382812 C 1.828125 11.585938 3.394531 13.421875 5.46875 13.835938 C 5.089844 13.941406 4.6875 13.996094 4.273438 13.996094 C 3.984375 13.996094 3.699219 13.96875 3.421875 13.914062 C 4 15.71875 5.675781 17.03125 7.664062 17.066406 C 6.113281 18.285156 4.152344 19.011719 2.023438 19.011719 C 1.660156 19.011719 1.296875 18.988281 0.941406 18.945312 C 2.945312 20.25 5.328125 21 7.890625 21 C 16.242188 21 20.8125 14.078125 20.8125 8.070312 C 20.8125 7.875 20.808594 7.679688 20.796875 7.484375 C 21.679688 6.84375 22.453125 6.046875 23.0625 5.132812 Z M 20.351562 6.875 L 20.023438 7.117188 L 20.042969 7.519531 C 20.054688 7.695312 20.058594 7.882812 20.058594 8.070312 C 20.058594 9.488281 19.78125 10.96875 19.261719 12.359375 C 18.710938 13.824219 17.925781 15.144531 16.917969 16.289062 C 15.839844 17.511719 14.5625 18.46875 13.117188 19.140625 C 11.53125 19.875 9.773438 20.246094 7.890625 20.246094 C 6.535156 20.246094 5.199219 20.019531 3.929688 19.578125 C 4.390625 19.492188 4.847656 19.363281 5.292969 19.210938 C 6.308594 18.851562 7.257812 18.332031 8.109375 17.664062 L 9.765625 16.363281 L 7.660156 16.328125 C 6.4375 16.304688 5.328125 15.699219 4.644531 14.738281 C 4.988281 14.714844 5.324219 14.652344 5.652344 14.5625 L 8.5 13.617188 L 5.605469 13.105469 C 4.21875 12.828125 3.132812 11.796875 2.734375 10.492188 C 3.097656 10.585938 3.453125 10.621094 3.851562 10.644531 C 3.851562 10.644531 5.34375 10.710938 6.46875 10.640625 C 5.859375 10.351562 4.292969 9.273438 4.292969 9.273438 C 3.238281 8.5625 2.605469 7.386719 2.605469 6.113281 C 2.605469 5.8125 2.644531 5.511719 2.710938 5.222656 C 3.734375 6.273438 4.914062 7.148438 6.230469 7.824219 C 7.964844 8.71875 9.835938 9.21875 11.789062 9.320312 L 12.78125 9.371094 L 12.558594 8.398438 C 12.492188 8.125 12.460938 7.832031 12.460938 7.53125 C 12.460938 5.453125 14.160156 3.75 16.25 3.75 C 17.296875 3.75 18.304688 4.1875 19.015625 4.949219 L 19.304688 5.253906 L 19.710938 5.175781 C 19.921875 5.132812 20.128906 5.085938 20.335938 5.03125 C 20.289062 5.09375 20.066406 5.316406 19.820312 5.535156 C 19.609375 5.722656 18.984375 6.308594 18.984375 6.308594 C 18.984375 6.308594 19.59375 6.5 19.972656 6.542969 C 20.351562 6.585938 20.789062 6.515625 20.859375 6.507812 C 20.726562 6.613281 20.492188 6.777344 20.351562 6.875 Z M 20.351562 6.875 "/>
</g>
</svg>
