<?xml version="1.0" encoding="UTF-8"?>
<svg xmlns="http://www.w3.org/2000/svg" xmlns:xlink="http://www.w3.org/1999/xlink" width="24pt" height="24pt" viewBox="0 0 24 24" version="1.1">
<g id="surface1">
<path style=" stroke:none;fill-rule:nonzero;fill:#999999;fill-opacity:1;" d="M 10.476562 3.847656 C 11.03125 4.296875 12.183594 5.242188 12.183594 7.035156 C 12.183594 8.785156 11.175781 9.609375 10.164062 10.386719 C 9.847656 10.695312 9.488281 11.023438 9.488281 11.546875 C 9.488281 12.066406 9.847656 12.351562 10.109375 12.5625 L 10.976562 13.222656 C 12.039062 14.09375 13 14.902344 13 16.53125 C 13 18.753906 10.808594 20.996094 6.671875 20.996094 C 3.183594 21 1.5 19.367188 1.5 17.621094 C 1.5 16.773438 1.929688 15.566406 3.351562 14.738281 C 4.84375 13.84375 6.867188 13.71875 7.945312 13.648438 C 7.609375 13.222656 7.222656 12.773438 7.222656 12.042969 C 7.222656 11.640625 7.34375 11.40625 7.460938 11.117188 C 7.199219 11.140625 6.933594 11.164062 6.695312 11.164062 C 4.144531 11.164062 2.699219 9.300781 2.699219 7.457031 C 2.699219 6.371094 3.207031 5.164062 4.242188 4.292969 C 5.617188 3.1875 7.25 3 8.550781 3 L 13.503906 3 L 11.96875 3.847656 Z M 8.765625 14.339844 C 8.574219 14.316406 8.453125 14.316406 8.210938 14.316406 C 7.996094 14.316406 6.699219 14.363281 5.6875 14.691406 C 5.15625 14.878906 3.617188 15.445312 3.617188 17.125 C 3.617188 18.800781 5.277344 20.007812 7.851562 20.007812 C 10.164062 20.007812 11.386719 18.917969 11.386719 17.457031 C 11.386719 16.25 10.59375 15.613281 8.765625 14.339844 M 9.464844 9.847656 C 10.015625 9.304688 10.0625 8.550781 10.0625 8.125 C 10.0625 6.421875 9.027344 3.777344 7.03125 3.777344 C 6.40625 3.777344 5.734375 4.082031 5.347656 4.554688 C 4.941406 5.054688 4.820312 5.691406 4.820312 6.304688 C 4.820312 7.890625 5.757812 10.507812 7.828125 10.507812 C 8.429688 10.515625 9.074219 10.226562 9.464844 9.847656 "/>
<path style=" stroke:none;fill-rule:nonzero;fill:#999999;fill-opacity:1;" d="M 22.5 6.671875 L 18.828125 6.671875 L 18.828125 3.003906 L 18 3.003906 L 18 6.671875 L 14.265625 6.671875 L 14.265625 7.503906 L 18 7.503906 L 18 11.296875 L 18.828125 11.296875 L 18.828125 7.503906 L 22.5 7.503906 Z M 22.5 6.671875 "/>
</g>
</svg>
